<mxfile host="app.diagrams.net" modified="2021-09-19T16:18:26.519Z" agent="5.0 (Windows NT 10.0; Win64; x64) AppleWebKit/537.36 (KHTML, like Gecko) Chrome/93.0.4577.82 Safari/537.36" etag="kzKcOHtRrXwNGUyxDv1a" version="15.2.9" type="github">
  <diagram id="C5RBs43oDa-KdzZeNtuy" name="Page-1">
    <mxGraphModel dx="716" dy="377" grid="1" gridSize="10" guides="1" tooltips="1" connect="1" arrows="1" fold="1" page="1" pageScale="1" pageWidth="827" pageHeight="1169" math="0" shadow="0">
      <root>
        <mxCell id="WIyWlLk6GJQsqaUBKTNV-0" />
        <mxCell id="WIyWlLk6GJQsqaUBKTNV-1" parent="WIyWlLk6GJQsqaUBKTNV-0" />
        <mxCell id="QMK6GjVbl7aEqdqEtqhH-12" value="" style="edgeStyle=orthogonalEdgeStyle;rounded=0;orthogonalLoop=1;jettySize=auto;html=1;" edge="1" parent="WIyWlLk6GJQsqaUBKTNV-1" source="QMK6GjVbl7aEqdqEtqhH-4">
          <mxGeometry relative="1" as="geometry">
            <mxPoint x="405" y="70" as="targetPoint" />
            <Array as="points">
              <mxPoint x="405" y="40" />
              <mxPoint x="405" y="40" />
            </Array>
          </mxGeometry>
        </mxCell>
        <mxCell id="QMK6GjVbl7aEqdqEtqhH-4" value="початок" style="strokeWidth=1;html=1;shape=mxgraph.flowchart.terminator;whiteSpace=wrap;fontSize=14;" vertex="1" parent="WIyWlLk6GJQsqaUBKTNV-1">
          <mxGeometry x="360" y="10" width="90" height="30" as="geometry" />
        </mxCell>
        <mxCell id="QMK6GjVbl7aEqdqEtqhH-16" value="" style="edgeStyle=orthogonalEdgeStyle;rounded=0;orthogonalLoop=1;jettySize=auto;html=1;" edge="1" parent="WIyWlLk6GJQsqaUBKTNV-1" source="QMK6GjVbl7aEqdqEtqhH-14">
          <mxGeometry relative="1" as="geometry">
            <mxPoint x="405" y="140" as="targetPoint" />
          </mxGeometry>
        </mxCell>
        <mxCell id="QMK6GjVbl7aEqdqEtqhH-14" value="x" style="shape=parallelogram;perimeter=parallelogramPerimeter;whiteSpace=wrap;html=1;fixedSize=1;fontSize=17;" vertex="1" parent="WIyWlLk6GJQsqaUBKTNV-1">
          <mxGeometry x="355" y="70" width="100" height="50" as="geometry" />
        </mxCell>
        <mxCell id="QMK6GjVbl7aEqdqEtqhH-26" value="" style="edgeStyle=orthogonalEdgeStyle;rounded=0;orthogonalLoop=1;jettySize=auto;html=1;" edge="1" parent="WIyWlLk6GJQsqaUBKTNV-1" source="QMK6GjVbl7aEqdqEtqhH-20">
          <mxGeometry relative="1" as="geometry">
            <mxPoint x="407.5" y="210" as="targetPoint" />
          </mxGeometry>
        </mxCell>
        <mxCell id="QMK6GjVbl7aEqdqEtqhH-20" value="tg(x)+1" style="rounded=0;whiteSpace=wrap;html=1;fontSize=15;" vertex="1" parent="WIyWlLk6GJQsqaUBKTNV-1">
          <mxGeometry x="350" y="140" width="115" height="50" as="geometry" />
        </mxCell>
        <mxCell id="QMK6GjVbl7aEqdqEtqhH-28" value="x&amp;lt;=-5" style="rhombus;whiteSpace=wrap;html=1;fontSize=14;" vertex="1" parent="WIyWlLk6GJQsqaUBKTNV-1">
          <mxGeometry x="357.5" y="210" width="100" height="50" as="geometry" />
        </mxCell>
        <mxCell id="QMK6GjVbl7aEqdqEtqhH-32" value="" style="strokeWidth=1;html=1;shape=mxgraph.flowchart.annotation_1;align=left;pointerEvents=1;" vertex="1" parent="WIyWlLk6GJQsqaUBKTNV-1">
          <mxGeometry x="307.5" y="235" width="50" height="125" as="geometry" />
        </mxCell>
        <mxCell id="QMK6GjVbl7aEqdqEtqhH-33" value="" style="line;strokeWidth=1;html=1;" vertex="1" parent="WIyWlLk6GJQsqaUBKTNV-1">
          <mxGeometry x="357.5" y="355" width="162.5" height="10" as="geometry" />
        </mxCell>
        <mxCell id="QMK6GjVbl7aEqdqEtqhH-34" value="" style="line;strokeWidth=1;html=1;" vertex="1" parent="WIyWlLk6GJQsqaUBKTNV-1">
          <mxGeometry x="457.5" y="230" width="62.5" height="10" as="geometry" />
        </mxCell>
        <mxCell id="QMK6GjVbl7aEqdqEtqhH-35" value="" style="endArrow=classic;html=1;" edge="1" parent="WIyWlLk6GJQsqaUBKTNV-1" target="QMK6GjVbl7aEqdqEtqhH-38">
          <mxGeometry width="50" height="50" relative="1" as="geometry">
            <mxPoint x="519" y="235" as="sourcePoint" />
            <mxPoint x="519" y="270" as="targetPoint" />
          </mxGeometry>
        </mxCell>
        <mxCell id="QMK6GjVbl7aEqdqEtqhH-37" value="" style="line;strokeWidth=1;html=1;labelBackgroundColor=#ffffff;verticalAlign=top;rotation=90;" vertex="1" parent="WIyWlLk6GJQsqaUBKTNV-1">
          <mxGeometry x="504" y="338" width="34" height="10" as="geometry" />
        </mxCell>
        <mxCell id="QMK6GjVbl7aEqdqEtqhH-38" value="B=e&lt;sup&gt;x/[1-x]&lt;/sup&gt;" style="rounded=0;whiteSpace=wrap;html=1;labelBackgroundColor=#ffffff;strokeWidth=1;verticalAlign=middle;fontSize=14;" vertex="1" parent="WIyWlLk6GJQsqaUBKTNV-1">
          <mxGeometry x="460" y="282" width="120" height="48" as="geometry" />
        </mxCell>
        <mxCell id="QMK6GjVbl7aEqdqEtqhH-40" value="" style="shape=image;html=1;verticalAlign=top;verticalLabelPosition=bottom;labelBackgroundColor=#ffffff;imageAspect=0;aspect=fixed;image=https://cdn4.iconfinder.com/data/icons/ionicons/512/icon-ios7-plus-empty-128.png;fontSize=14;strokeWidth=1;" vertex="1" parent="WIyWlLk6GJQsqaUBKTNV-1">
          <mxGeometry x="454" y="218" width="21" height="21" as="geometry" />
        </mxCell>
        <mxCell id="QMK6GjVbl7aEqdqEtqhH-41" value="" style="shape=image;html=1;verticalAlign=top;verticalLabelPosition=bottom;labelBackgroundColor=#ffffff;imageAspect=0;aspect=fixed;image=https://cdn4.iconfinder.com/data/icons/ionicons/512/icon-ios7-minus-empty-128.png;fontSize=14;strokeWidth=1;perimeterSpacing=1;" vertex="1" parent="WIyWlLk6GJQsqaUBKTNV-1">
          <mxGeometry x="343" y="218" width="20" height="20" as="geometry" />
        </mxCell>
        <mxCell id="QMK6GjVbl7aEqdqEtqhH-45" value="" style="endArrow=classic;html=1;fontSize=14;" edge="1" parent="WIyWlLk6GJQsqaUBKTNV-1">
          <mxGeometry width="50" height="50" relative="1" as="geometry">
            <mxPoint x="409" y="360" as="sourcePoint" />
            <mxPoint x="409.5" y="390" as="targetPoint" />
          </mxGeometry>
        </mxCell>
        <mxCell id="QMK6GjVbl7aEqdqEtqhH-47" value="-5&amp;lt;x &amp;amp;&amp;amp; x&amp;lt;=3" style="rhombus;whiteSpace=wrap;html=1;fontSize=14;" vertex="1" parent="WIyWlLk6GJQsqaUBKTNV-1">
          <mxGeometry x="350" y="390" width="120" height="50" as="geometry" />
        </mxCell>
        <mxCell id="QMK6GjVbl7aEqdqEtqhH-48" value="" style="strokeWidth=1;html=1;shape=mxgraph.flowchart.annotation_1;align=left;pointerEvents=1;" vertex="1" parent="WIyWlLk6GJQsqaUBKTNV-1">
          <mxGeometry x="302.5" y="415" width="50" height="125" as="geometry" />
        </mxCell>
        <mxCell id="QMK6GjVbl7aEqdqEtqhH-49" value="" style="line;strokeWidth=1;html=1;" vertex="1" parent="WIyWlLk6GJQsqaUBKTNV-1">
          <mxGeometry x="352.5" y="535" width="162.5" height="10" as="geometry" />
        </mxCell>
        <mxCell id="QMK6GjVbl7aEqdqEtqhH-50" value="" style="line;strokeWidth=1;html=1;" vertex="1" parent="WIyWlLk6GJQsqaUBKTNV-1">
          <mxGeometry x="470" y="410" width="45" height="10" as="geometry" />
        </mxCell>
        <mxCell id="QMK6GjVbl7aEqdqEtqhH-51" value="" style="endArrow=classic;html=1;" edge="1" parent="WIyWlLk6GJQsqaUBKTNV-1" target="QMK6GjVbl7aEqdqEtqhH-53">
          <mxGeometry width="50" height="50" relative="1" as="geometry">
            <mxPoint x="514" y="415" as="sourcePoint" />
            <mxPoint x="514" y="450" as="targetPoint" />
          </mxGeometry>
        </mxCell>
        <mxCell id="QMK6GjVbl7aEqdqEtqhH-52" value="" style="line;strokeWidth=1;html=1;labelBackgroundColor=#ffffff;verticalAlign=top;rotation=90;" vertex="1" parent="WIyWlLk6GJQsqaUBKTNV-1">
          <mxGeometry x="501.5" y="520.5" width="29" height="10" as="geometry" />
        </mxCell>
        <mxCell id="QMK6GjVbl7aEqdqEtqhH-53" value="B=3.2+lg(1.8x&lt;sup&gt;2&lt;/sup&gt;)" style="rounded=0;whiteSpace=wrap;html=1;labelBackgroundColor=#ffffff;strokeWidth=1;verticalAlign=middle;fontSize=14;" vertex="1" parent="WIyWlLk6GJQsqaUBKTNV-1">
          <mxGeometry x="455" y="462" width="120" height="48" as="geometry" />
        </mxCell>
        <mxCell id="QMK6GjVbl7aEqdqEtqhH-54" value="" style="shape=image;html=1;verticalAlign=top;verticalLabelPosition=bottom;labelBackgroundColor=#ffffff;imageAspect=0;aspect=fixed;image=https://cdn4.iconfinder.com/data/icons/ionicons/512/icon-ios7-plus-empty-128.png;fontSize=14;strokeWidth=1;" vertex="1" parent="WIyWlLk6GJQsqaUBKTNV-1">
          <mxGeometry x="465" y="398" width="21" height="21" as="geometry" />
        </mxCell>
        <mxCell id="QMK6GjVbl7aEqdqEtqhH-55" value="" style="shape=image;html=1;verticalAlign=top;verticalLabelPosition=bottom;labelBackgroundColor=#ffffff;imageAspect=0;aspect=fixed;image=https://cdn4.iconfinder.com/data/icons/ionicons/512/icon-ios7-minus-empty-128.png;fontSize=14;strokeWidth=1;perimeterSpacing=1;" vertex="1" parent="WIyWlLk6GJQsqaUBKTNV-1">
          <mxGeometry x="338" y="398" width="20" height="20" as="geometry" />
        </mxCell>
        <mxCell id="QMK6GjVbl7aEqdqEtqhH-67" value="" style="endArrow=classic;html=1;fontSize=14;" edge="1" parent="WIyWlLk6GJQsqaUBKTNV-1">
          <mxGeometry width="50" height="50" relative="1" as="geometry">
            <mxPoint x="409" y="540" as="sourcePoint" />
            <mxPoint x="409.5" y="570" as="targetPoint" />
          </mxGeometry>
        </mxCell>
        <mxCell id="QMK6GjVbl7aEqdqEtqhH-68" value="x&amp;gt;3" style="rhombus;whiteSpace=wrap;html=1;fontSize=14;" vertex="1" parent="WIyWlLk6GJQsqaUBKTNV-1">
          <mxGeometry x="350" y="570" width="120" height="50" as="geometry" />
        </mxCell>
        <mxCell id="QMK6GjVbl7aEqdqEtqhH-69" value="" style="strokeWidth=1;html=1;shape=mxgraph.flowchart.annotation_1;align=left;pointerEvents=1;" vertex="1" parent="WIyWlLk6GJQsqaUBKTNV-1">
          <mxGeometry x="302.5" y="595" width="50" height="125" as="geometry" />
        </mxCell>
        <mxCell id="QMK6GjVbl7aEqdqEtqhH-70" value="" style="line;strokeWidth=1;html=1;" vertex="1" parent="WIyWlLk6GJQsqaUBKTNV-1">
          <mxGeometry x="352.5" y="715" width="162.5" height="10" as="geometry" />
        </mxCell>
        <mxCell id="QMK6GjVbl7aEqdqEtqhH-71" value="" style="line;strokeWidth=1;html=1;" vertex="1" parent="WIyWlLk6GJQsqaUBKTNV-1">
          <mxGeometry x="470" y="590" width="45" height="10" as="geometry" />
        </mxCell>
        <mxCell id="QMK6GjVbl7aEqdqEtqhH-72" value="" style="endArrow=classic;html=1;" edge="1" parent="WIyWlLk6GJQsqaUBKTNV-1" target="QMK6GjVbl7aEqdqEtqhH-74">
          <mxGeometry width="50" height="50" relative="1" as="geometry">
            <mxPoint x="514" y="595" as="sourcePoint" />
            <mxPoint x="514" y="630" as="targetPoint" />
          </mxGeometry>
        </mxCell>
        <mxCell id="QMK6GjVbl7aEqdqEtqhH-73" value="" style="line;strokeWidth=1;html=1;labelBackgroundColor=#ffffff;verticalAlign=top;rotation=90;" vertex="1" parent="WIyWlLk6GJQsqaUBKTNV-1">
          <mxGeometry x="501.5" y="700.5" width="29" height="10" as="geometry" />
        </mxCell>
        <mxCell id="QMK6GjVbl7aEqdqEtqhH-74" value="&lt;p class=&quot;MsoNormal&quot;&gt;&lt;span lang=&quot;EN-US&quot;&gt;B=|x|&lt;/span&gt;&lt;span class=&quot;mwe-math-mathml-inline&quot;&gt;&lt;span style=&quot;font-size: 12.5pt ; line-height: 107% ; font-family: &amp;#34;arial&amp;#34; , sans-serif ; color: rgb(32 , 33 , 34) ; display: none&quot;&gt;{\displaystyle {\sqrt {\quad }}}&lt;/span&gt;&lt;/span&gt;&lt;span style=&quot;font-size: 10.5pt ; line-height: 107% ; font-family: &amp;#34;arial&amp;#34; , sans-serif ; color: rgb(32 , 33 , 34)&quot;&gt;√&lt;/span&gt;&lt;span lang=&quot;EN-US&quot; style=&quot;font-size: 10.5pt ; line-height: 107% ; font-family: &amp;#34;arial&amp;#34; , sans-serif ; color: rgb(32 , 33 , 34)&quot;&gt;x&lt;/span&gt;&lt;span class=&quot;mwe-math-mathml-inline&quot;&gt;&lt;span style=&quot;font-size: 12.5pt ; line-height: 107% ; font-family: &amp;#34;arial&amp;#34; , sans-serif ; color: rgb(32 , 33 , 34) ; display: none&quot;&gt;{\displaystyle {\sqrt&lt;br/&gt;{\quad }}}&lt;/span&gt;&lt;/span&gt;&lt;span class=&quot;mwe-math-mathml-inline&quot;&gt;&lt;span lang=&quot;UK&quot; style=&quot;font-size: 12.5pt ; line-height: 107% ; font-family: &amp;#34;arial&amp;#34; , sans-serif ; color: rgb(32 , 33 , 34) ; display: none&quot;&gt;√&lt;/span&gt;&lt;/span&gt;&lt;span lang=&quot;UK&quot;&gt;&lt;/span&gt;&lt;/p&gt;" style="rounded=0;whiteSpace=wrap;html=1;labelBackgroundColor=#ffffff;strokeWidth=1;verticalAlign=middle;fontSize=14;" vertex="1" parent="WIyWlLk6GJQsqaUBKTNV-1">
          <mxGeometry x="455" y="642" width="120" height="48" as="geometry" />
        </mxCell>
        <mxCell id="QMK6GjVbl7aEqdqEtqhH-75" value="" style="shape=image;html=1;verticalAlign=top;verticalLabelPosition=bottom;labelBackgroundColor=#ffffff;imageAspect=0;aspect=fixed;image=https://cdn4.iconfinder.com/data/icons/ionicons/512/icon-ios7-plus-empty-128.png;fontSize=14;strokeWidth=1;" vertex="1" parent="WIyWlLk6GJQsqaUBKTNV-1">
          <mxGeometry x="465" y="578" width="21" height="21" as="geometry" />
        </mxCell>
        <mxCell id="QMK6GjVbl7aEqdqEtqhH-76" value="" style="shape=image;html=1;verticalAlign=top;verticalLabelPosition=bottom;labelBackgroundColor=#ffffff;imageAspect=0;aspect=fixed;image=https://cdn4.iconfinder.com/data/icons/ionicons/512/icon-ios7-minus-empty-128.png;fontSize=14;strokeWidth=1;perimeterSpacing=1;" vertex="1" parent="WIyWlLk6GJQsqaUBKTNV-1">
          <mxGeometry x="338" y="578" width="20" height="20" as="geometry" />
        </mxCell>
        <mxCell id="QMK6GjVbl7aEqdqEtqhH-82" value="" style="endArrow=classic;html=1;fontSize=14;" edge="1" parent="WIyWlLk6GJQsqaUBKTNV-1">
          <mxGeometry width="50" height="50" relative="1" as="geometry">
            <mxPoint x="409.88" y="720" as="sourcePoint" />
            <mxPoint x="409.88" y="760" as="targetPoint" />
          </mxGeometry>
        </mxCell>
        <mxCell id="QMK6GjVbl7aEqdqEtqhH-83" value="y=A+B" style="rounded=0;whiteSpace=wrap;html=1;labelBackgroundColor=#ffffff;fontSize=14;strokeWidth=1;verticalAlign=middle;" vertex="1" parent="WIyWlLk6GJQsqaUBKTNV-1">
          <mxGeometry x="352.5" y="760" width="120" height="60" as="geometry" />
        </mxCell>
        <mxCell id="QMK6GjVbl7aEqdqEtqhH-88" value="" style="edgeStyle=orthogonalEdgeStyle;rounded=0;orthogonalLoop=1;jettySize=auto;html=1;fontSize=14;" edge="1" parent="WIyWlLk6GJQsqaUBKTNV-1">
          <mxGeometry relative="1" as="geometry">
            <mxPoint x="410" y="894" as="sourcePoint" />
            <mxPoint x="410" y="930" as="targetPoint" />
            <Array as="points">
              <mxPoint x="410" y="894" />
              <mxPoint x="410" y="894" />
            </Array>
          </mxGeometry>
        </mxCell>
        <mxCell id="QMK6GjVbl7aEqdqEtqhH-86" value="y" style="strokeWidth=1;html=1;shape=mxgraph.flowchart.document2;whiteSpace=wrap;size=0.25;labelBackgroundColor=#ffffff;fontSize=14;verticalAlign=middle;" vertex="1" parent="WIyWlLk6GJQsqaUBKTNV-1">
          <mxGeometry x="360" y="850" width="100" height="60" as="geometry" />
        </mxCell>
        <mxCell id="QMK6GjVbl7aEqdqEtqhH-96" value="" style="edgeStyle=orthogonalEdgeStyle;rounded=0;orthogonalLoop=1;jettySize=auto;html=1;fontSize=14;endArrow=classic;endFill=1;" edge="1" parent="WIyWlLk6GJQsqaUBKTNV-1" source="QMK6GjVbl7aEqdqEtqhH-89">
          <mxGeometry relative="1" as="geometry">
            <mxPoint x="520" y="990" as="targetPoint" />
            <Array as="points">
              <mxPoint x="520" y="960" />
            </Array>
          </mxGeometry>
        </mxCell>
        <mxCell id="QMK6GjVbl7aEqdqEtqhH-89" value="x&amp;lt;=-5" style="rhombus;whiteSpace=wrap;html=1;labelBackgroundColor=#ffffff;fontSize=14;strokeWidth=1;" vertex="1" parent="WIyWlLk6GJQsqaUBKTNV-1">
          <mxGeometry x="355" y="930" width="110" height="60" as="geometry" />
        </mxCell>
        <mxCell id="QMK6GjVbl7aEqdqEtqhH-91" value="" style="endArrow=classic;html=1;fontSize=14;" edge="1" parent="WIyWlLk6GJQsqaUBKTNV-1">
          <mxGeometry width="50" height="50" relative="1" as="geometry">
            <mxPoint x="409.88" y="820" as="sourcePoint" />
            <mxPoint x="409.88" y="850" as="targetPoint" />
          </mxGeometry>
        </mxCell>
        <mxCell id="QMK6GjVbl7aEqdqEtqhH-92" value="" style="edgeStyle=segmentEdgeStyle;endArrow=classic;html=1;fontSize=14;rounded=0;" edge="1" parent="WIyWlLk6GJQsqaUBKTNV-1">
          <mxGeometry width="50" height="50" relative="1" as="geometry">
            <mxPoint x="358.5" y="960" as="sourcePoint" />
            <mxPoint x="307" y="990" as="targetPoint" />
          </mxGeometry>
        </mxCell>
        <mxCell id="QMK6GjVbl7aEqdqEtqhH-97" value="B=e&lt;sup&gt;x/[1-x]&lt;/sup&gt;" style="rounded=0;whiteSpace=wrap;html=1;labelBackgroundColor=#ffffff;fontSize=14;strokeWidth=1;" vertex="1" parent="WIyWlLk6GJQsqaUBKTNV-1">
          <mxGeometry x="472.5" y="990" width="101" height="40" as="geometry" />
        </mxCell>
        <mxCell id="QMK6GjVbl7aEqdqEtqhH-100" value="" style="edgeStyle=orthogonalEdgeStyle;rounded=0;orthogonalLoop=1;jettySize=auto;html=1;fontSize=14;endArrow=classic;endFill=1;" edge="1" parent="WIyWlLk6GJQsqaUBKTNV-1" source="QMK6GjVbl7aEqdqEtqhH-98">
          <mxGeometry relative="1" as="geometry">
            <mxPoint x="210" y="1040" as="targetPoint" />
            <Array as="points">
              <mxPoint x="220" y="1015" />
              <mxPoint x="220" y="1015" />
            </Array>
          </mxGeometry>
        </mxCell>
        <mxCell id="QMK6GjVbl7aEqdqEtqhH-98" value="x&amp;gt;3" style="rhombus;whiteSpace=wrap;html=1;labelBackgroundColor=#ffffff;fontSize=14;strokeWidth=1;" vertex="1" parent="WIyWlLk6GJQsqaUBKTNV-1">
          <mxGeometry x="250" y="990" width="113" height="50" as="geometry" />
        </mxCell>
        <mxCell id="QMK6GjVbl7aEqdqEtqhH-102" value="" style="line;strokeWidth=1;html=1;labelBackgroundColor=#ffffff;fontSize=14;" vertex="1" parent="WIyWlLk6GJQsqaUBKTNV-1">
          <mxGeometry x="360" y="1014.5" width="40" height="1" as="geometry" />
        </mxCell>
        <mxCell id="QMK6GjVbl7aEqdqEtqhH-103" value="" style="endArrow=classic;html=1;fontSize=14;" edge="1" parent="WIyWlLk6GJQsqaUBKTNV-1">
          <mxGeometry width="50" height="50" relative="1" as="geometry">
            <mxPoint x="400" y="1014.5" as="sourcePoint" />
            <mxPoint x="400" y="1030" as="targetPoint" />
          </mxGeometry>
        </mxCell>
        <mxCell id="QMK6GjVbl7aEqdqEtqhH-105" value="&lt;p class=&quot;MsoNormal&quot;&gt;&lt;span lang=&quot;EN-US&quot;&gt;B=|x|&lt;/span&gt;&lt;span class=&quot;mwe-math-mathml-inline&quot;&gt;&lt;span style=&quot;font-size: 12.5pt ; line-height: 107% ; font-family: &amp;#34;arial&amp;#34; , sans-serif ; color: rgb(32 , 33 , 34) ; display: none&quot;&gt;{\displaystyle {\sqrt {\quad }}}&lt;/span&gt;&lt;/span&gt;&lt;span style=&quot;font-size: 10.5pt ; line-height: 107% ; font-family: &amp;#34;arial&amp;#34; , sans-serif ; color: rgb(32 , 33 , 34)&quot;&gt;√&lt;/span&gt;&lt;span lang=&quot;EN-US&quot; style=&quot;font-size: 10.5pt ; line-height: 107% ; font-family: &amp;#34;arial&amp;#34; , sans-serif ; color: rgb(32 , 33 , 34)&quot;&gt;x&lt;/span&gt;&lt;span class=&quot;mwe-math-mathml-inline&quot;&gt;&lt;span style=&quot;font-size: 12.5pt ; line-height: 107% ; font-family: &amp;#34;arial&amp;#34; , sans-serif ; color: rgb(32 , 33 , 34) ; display: none&quot;&gt;{\displaystyle {\sqrt&lt;br/&gt;{\quad }}}&lt;/span&gt;&lt;/span&gt;&lt;span class=&quot;mwe-math-mathml-inline&quot;&gt;&lt;span lang=&quot;UK&quot; style=&quot;font-size: 12.5pt ; line-height: 107% ; font-family: &amp;#34;arial&amp;#34; , sans-serif ; color: rgb(32 , 33 , 34) ; display: none&quot;&gt;√&lt;/span&gt;&lt;/span&gt;&lt;span lang=&quot;UK&quot;&gt;&lt;/span&gt;&lt;/p&gt;" style="rounded=0;whiteSpace=wrap;html=1;labelBackgroundColor=#ffffff;fontSize=14;strokeWidth=1;" vertex="1" parent="WIyWlLk6GJQsqaUBKTNV-1">
          <mxGeometry x="363" y="1030" width="77" height="50" as="geometry" />
        </mxCell>
        <mxCell id="QMK6GjVbl7aEqdqEtqhH-106" value="B=3.2+lg(1.8x&lt;sup&gt;2&lt;/sup&gt;)" style="rounded=0;whiteSpace=wrap;html=1;labelBackgroundColor=#ffffff;fontSize=14;strokeWidth=1;" vertex="1" parent="WIyWlLk6GJQsqaUBKTNV-1">
          <mxGeometry x="150" y="1040" width="110" height="40" as="geometry" />
        </mxCell>
        <mxCell id="QMK6GjVbl7aEqdqEtqhH-107" value="" style="shape=image;html=1;verticalAlign=top;verticalLabelPosition=bottom;labelBackgroundColor=#ffffff;imageAspect=0;aspect=fixed;image=https://cdn4.iconfinder.com/data/icons/ionicons/512/icon-ios7-minus-empty-128.png;fontSize=14;strokeWidth=1;" vertex="1" parent="WIyWlLk6GJQsqaUBKTNV-1">
          <mxGeometry x="337" y="940" width="18" height="18" as="geometry" />
        </mxCell>
        <mxCell id="QMK6GjVbl7aEqdqEtqhH-108" value="" style="shape=image;html=1;verticalAlign=top;verticalLabelPosition=bottom;labelBackgroundColor=#ffffff;imageAspect=0;aspect=fixed;image=https://cdn4.iconfinder.com/data/icons/ionicons/512/icon-ios7-minus-empty-128.png;fontSize=14;strokeWidth=1;" vertex="1" parent="WIyWlLk6GJQsqaUBKTNV-1">
          <mxGeometry x="232" y="996.5" width="18" height="18" as="geometry" />
        </mxCell>
        <mxCell id="QMK6GjVbl7aEqdqEtqhH-109" value="" style="shape=image;html=1;verticalAlign=top;verticalLabelPosition=bottom;labelBackgroundColor=#ffffff;imageAspect=0;aspect=fixed;image=https://cdn4.iconfinder.com/data/icons/ionicons/512/icon-ios7-plus-empty-128.png;fontSize=14;strokeWidth=1;" vertex="1" parent="WIyWlLk6GJQsqaUBKTNV-1">
          <mxGeometry x="460" y="940" width="20" height="20" as="geometry" />
        </mxCell>
        <mxCell id="QMK6GjVbl7aEqdqEtqhH-110" value="" style="shape=image;html=1;verticalAlign=top;verticalLabelPosition=bottom;labelBackgroundColor=#ffffff;imageAspect=0;aspect=fixed;image=https://cdn4.iconfinder.com/data/icons/ionicons/512/icon-ios7-plus-empty-128.png;fontSize=14;strokeWidth=1;" vertex="1" parent="WIyWlLk6GJQsqaUBKTNV-1">
          <mxGeometry x="360" y="996.5" width="20" height="20" as="geometry" />
        </mxCell>
        <mxCell id="QMK6GjVbl7aEqdqEtqhH-111" value="" style="strokeWidth=1;html=1;shape=mxgraph.flowchart.annotation_1;align=left;pointerEvents=1;labelBackgroundColor=#ffffff;fontSize=14;rotation=-90;" vertex="1" parent="WIyWlLk6GJQsqaUBKTNV-1">
          <mxGeometry x="294.75" y="990" width="23.5" height="201.38" as="geometry" />
        </mxCell>
        <mxCell id="QMK6GjVbl7aEqdqEtqhH-116" value="" style="line;strokeWidth=1;direction=south;html=1;labelBackgroundColor=#ffffff;fontSize=14;" vertex="1" parent="WIyWlLk6GJQsqaUBKTNV-1">
          <mxGeometry x="515" y="1030" width="10" height="90" as="geometry" />
        </mxCell>
        <mxCell id="QMK6GjVbl7aEqdqEtqhH-119" style="edgeStyle=orthogonalEdgeStyle;rounded=0;orthogonalLoop=1;jettySize=auto;html=1;exitX=0.25;exitY=0.5;exitDx=0;exitDy=0;exitPerimeter=0;fontSize=14;endArrow=classic;endFill=1;" edge="1" parent="WIyWlLk6GJQsqaUBKTNV-1" source="QMK6GjVbl7aEqdqEtqhH-117">
          <mxGeometry relative="1" as="geometry">
            <mxPoint x="399.8620689655172" y="1140" as="targetPoint" />
          </mxGeometry>
        </mxCell>
        <mxCell id="QMK6GjVbl7aEqdqEtqhH-117" value="" style="line;strokeWidth=1;html=1;labelBackgroundColor=#ffffff;fontSize=14;" vertex="1" parent="WIyWlLk6GJQsqaUBKTNV-1">
          <mxGeometry x="359.75" y="1115" width="160" height="10" as="geometry" />
        </mxCell>
        <mxCell id="QMK6GjVbl7aEqdqEtqhH-118" value="" style="line;strokeWidth=1;direction=south;html=1;labelBackgroundColor=#ffffff;fontSize=14;verticalAlign=top;" vertex="1" parent="WIyWlLk6GJQsqaUBKTNV-1">
          <mxGeometry x="354.5" y="1101" width="10" height="20" as="geometry" />
        </mxCell>
        <mxCell id="QMK6GjVbl7aEqdqEtqhH-121" style="edgeStyle=orthogonalEdgeStyle;rounded=0;orthogonalLoop=1;jettySize=auto;html=1;exitX=0.5;exitY=1;exitDx=0;exitDy=0;fontSize=14;endArrow=classic;endFill=1;" edge="1" parent="WIyWlLk6GJQsqaUBKTNV-1" source="QMK6GjVbl7aEqdqEtqhH-120">
          <mxGeometry relative="1" as="geometry">
            <mxPoint x="399.8620689655172" y="1190" as="targetPoint" />
          </mxGeometry>
        </mxCell>
        <mxCell id="QMK6GjVbl7aEqdqEtqhH-120" value="y=A+B" style="rounded=0;whiteSpace=wrap;html=1;labelBackgroundColor=#ffffff;fontSize=14;strokeWidth=1;verticalAlign=top;" vertex="1" parent="WIyWlLk6GJQsqaUBKTNV-1">
          <mxGeometry x="350" y="1139" width="100" height="30" as="geometry" />
        </mxCell>
        <mxCell id="QMK6GjVbl7aEqdqEtqhH-127" value="" style="edgeStyle=orthogonalEdgeStyle;rounded=0;orthogonalLoop=1;jettySize=auto;html=1;fontSize=14;endArrow=classic;endFill=1;exitX=0.511;exitY=0.82;exitDx=0;exitDy=0;exitPerimeter=0;" edge="1" parent="WIyWlLk6GJQsqaUBKTNV-1" source="QMK6GjVbl7aEqdqEtqhH-122">
          <mxGeometry relative="1" as="geometry">
            <mxPoint x="403" y="1260" as="targetPoint" />
            <Array as="points">
              <mxPoint x="404" y="1240" />
            </Array>
          </mxGeometry>
        </mxCell>
        <mxCell id="QMK6GjVbl7aEqdqEtqhH-122" value="y" style="shape=document;whiteSpace=wrap;html=1;boundedLbl=1;labelBackgroundColor=#ffffff;fontSize=14;strokeWidth=1;verticalAlign=top;" vertex="1" parent="WIyWlLk6GJQsqaUBKTNV-1">
          <mxGeometry x="357.5" y="1191.38" width="90" height="49" as="geometry" />
        </mxCell>
        <mxCell id="QMK6GjVbl7aEqdqEtqhH-130" value="кінець" style="strokeWidth=1;html=1;shape=mxgraph.flowchart.terminator;whiteSpace=wrap;labelBackgroundColor=#ffffff;fontSize=14;verticalAlign=top;" vertex="1" parent="WIyWlLk6GJQsqaUBKTNV-1">
          <mxGeometry x="356.5" y="1260" width="90" height="30" as="geometry" />
        </mxCell>
      </root>
    </mxGraphModel>
  </diagram>
</mxfile>
